
        <svg xmlns="http://www.w3.org/2000/svg" xmlns:xlink="http://www.w3.org/1999/xlink" version="1.1" width="3187.5" height="793.141592920354" viewBox="0 0 3187.5 793.141592920354">
			
			<g transform="scale(9.375) translate(10, 10)">
				<defs id="SvgjsDefs1303"/><g id="SvgjsG1304" featureKey="symbolFeature-0" transform="matrix(0.8849557522123894,0,0,0.8849557522123894,-7.345824115044248,-24.33628318584071)" fill="#fff"><path xmlns="http://www.w3.org/2000/svg" style="" d="M 34.800781 27.5 C 28.500781 27.5 23.300781 32.7 23.300781 39 L 23.300781 42.5 L 9.8007812 42.5 C 9.0007812 42.5 8.3007812 43.2 8.3007812 44 C 8.3007812 44.8 9.0007812 45.5 9.8007812 45.5 L 23.300781 45.5 L 23.300781 52.5 L 9.8007812 52.5 C 9.0007812 52.5 8.3007812 53.2 8.3007812 54 C 8.3007812 54.8 9.0007812 55.5 9.8007812 55.5 L 23.300781 55.5 L 23.300781 62.5 L 9.8007812 62.5 C 9.0007812 62.5 8.3007812 63.2 8.3007812 64 C 8.3007812 64.8 9.0007812 65.5 9.8007812 65.5 L 23.300781 65.5 L 23.300781 72.5 L 9.8007812 72.5 C 9.0007812 72.5 8.3007812 73.2 8.3007812 74 C 8.3007812 74.8 9.0007812 75.5 9.8007812 75.5 L 23.300781 75.5 L 23.300781 82.5 L 9.8007812 82.5 C 9.0007812 82.5 8.3007812 83.2 8.3007812 84 C 8.3007812 84.8 9.0007812 85.5 9.8007812 85.5 L 23.300781 85.5 L 23.300781 89 C 23.300781 95.3 28.500781 100.5 34.800781 100.5 L 93.199219 100.5 C 99.499219 100.5 104.69922 95.3 104.69922 89 L 104.69922 85.5 L 104.80078 85.5 L 119.80078 85.5 C 120.60078 85.5 121.30078 84.8 121.30078 84 C 121.30078 83.2 120.60078 82.5 119.80078 82.5 L 104.80078 82.5 L 104.69922 82.5 L 104.69922 75.5 L 104.80078 75.5 L 119.80078 75.5 C 120.60078 75.5 121.30078 74.8 121.30078 74 C 121.30078 73.2 120.60078 72.5 119.80078 72.5 L 104.80078 72.5 L 104.69922 72.5 L 104.69922 65.5 L 104.80078 65.5 L 119.80078 65.5 C 120.60078 65.5 121.30078 64.8 121.30078 64 C 121.30078 63.2 120.60078 62.5 119.80078 62.5 L 104.80078 62.5 L 104.69922 62.5 L 104.69922 55.5 L 104.80078 55.5 L 119.80078 55.5 C 120.60078 55.5 121.30078 54.8 121.30078 54 C 121.30078 53.2 120.60078 52.5 119.80078 52.5 L 104.80078 52.5 L 104.69922 52.5 L 104.69922 45.5 L 104.80078 45.5 L 119.80078 45.5 C 120.60078 45.5 121.30078 44.8 121.30078 44 C 121.30078 43.2 120.60078 42.5 119.80078 42.5 L 104.80078 42.5 L 104.69922 42.5 L 104.69922 39 C 104.69922 32.7 99.499219 27.5 93.199219 27.5 L 34.800781 27.5 z M 34.800781 30.5 L 93.199219 30.5 C 97.899219 30.5 101.69922 34.3 101.69922 39 L 101.69922 89 C 101.69922 93.7 97.899219 97.5 93.199219 97.5 L 34.800781 97.5 C 30.100781 97.5 26.300781 93.7 26.300781 89 L 26.300781 39 C 26.300781 34.3 30.100781 30.5 34.800781 30.5 z M 44.800781 43 C 41.200781 43 38.300781 45.9 38.300781 49.5 C 38.300781 52.6 40.500781 55.100781 43.300781 55.800781 L 43.300781 79 C 43.300781 79.8 44.000781 80.5 44.800781 80.5 L 77.400391 80.5 C 77.900391 83.6 80.600781 86 83.800781 86 C 87.400781 86 90.300781 83.1 90.300781 79.5 C 90.300781 75.9 87.400781 73 83.800781 73 C 80.900781 73 78.499609 74.9 77.599609 77.5 L 46.300781 77.5 L 46.300781 55.800781 C 49.200781 55.100781 51.300781 52.5 51.300781 49.5 C 51.300781 45.9 48.400781 43 44.800781 43 z M 83.800781 43 C 80.200781 43 77.300781 45.9 77.300781 49.5 C 77.300781 50.3 77.399219 50.999219 77.699219 51.699219 L 68.300781 57.800781 C 67.100781 56.700781 65.600781 56 63.800781 56 C 60.200781 56 57.300781 58.9 57.300781 62.5 C 57.300781 66.1 60.200781 69 63.800781 69 C 67.400781 69 70.300781 66.1 70.300781 62.5 C 70.300781 61.7 70.200391 61.000781 69.900391 60.300781 L 79.300781 54.199219 C 80.500781 55.299219 82.000781 56 83.800781 56 C 87.400781 56 90.300781 53.1 90.300781 49.5 C 90.300781 45.9 87.400781 43 83.800781 43 z M 44.800781 46 C 46.700781 46 48.300781 47.6 48.300781 49.5 C 48.300781 51.4 46.700781 53 44.800781 53 C 42.900781 53 41.300781 51.4 41.300781 49.5 C 41.300781 47.6 42.900781 46 44.800781 46 z M 83.800781 46 C 85.700781 46 87.300781 47.6 87.300781 49.5 C 87.300781 51.4 85.800781 53 83.800781 53 C 81.800781 53 80.300781 51.4 80.300781 49.5 C 80.300781 47.6 81.900781 46 83.800781 46 z M 63.800781 59 C 65.700781 59 67.300781 60.6 67.300781 62.5 C 67.300781 64.4 65.800781 66 63.800781 66 C 61.800781 66 60.300781 64.4 60.300781 62.5 C 60.300781 60.6 61.900781 59 63.800781 59 z M 83.800781 76 C 85.700781 76 87.300781 77.6 87.300781 79.5 C 87.300781 81.4 85.800781 83 83.800781 83 C 81.800781 83 80.300781 81.4 80.300781 79.5 C 80.300781 77.6 81.900781 76 83.800781 76 z " stroke="none"/></g><g id="SvgjsG1305" featureKey="nameFeature-0" transform="matrix(1.12663359163194,0,0,1.12663359163194,120.00000080583114,3.2014438603016284)" fill="#fff"><path d="M9.24 21.2 l-2.72 0 l0 12.76 c0 1.2 1 2.16 2.2 2.16 l0 3.84 c-3.32 0 -6 -2.68 -6 -6 l0 -12.76 l-2.72 0 l0 -3.84 l2.72 0 l0 -6 l3.8 0 l0 6 l2.72 0 l0 3.84 z M16.12 39.92 c-2.88 0 -5.2 -2.36 -5.2 -5.24 l0 -12.48 c0 -2.64 2.16 -4.8 4.8 -4.8 l0.84 0 c2.64 0 4.8 2.16 4.8 4.8 l0 5.24 l-6.72 0.12 l0 7.12 c0 0.84 0.64 1.52 1.48 1.52 s1.52 -0.68 1.52 -1.52 l0 -2.48 l3.72 0 l0 2.48 c0 2.88 -2.36 5.24 -5.24 5.24 z M16.56 21.08 l-0.84 0 c-0.6 0 -1.08 0.52 -1.08 1.12 l0 1.68 l3 -0.08 l0 -1.6 c0 -0.6 -0.48 -1.12 -1.08 -1.12 z M34.879999999999995 17.44 l-3.76 11.72 l3.44 10.76 l-3.96 0 l-1.48 -4.56 l-1.48 4.56 l-4 0 l3.48 -10.76 l-3.76 -11.72 l4 0 l1.76 5.48 l1.76 -5.48 l4 0 z M46.12 21.2 l-2.72 0 l0 12.76 c0 1.2 1 2.16 2.2 2.16 l0 3.84 c-3.32 0 -6 -2.68 -6 -6 l0 -12.76 l-2.72 0 l0 -3.84 l2.72 0 l0 -6 l3.8 0 l0 6 l2.72 0 l0 3.84 z M61.48 39.96 c-2.96 0 -5.36 -2.4 -5.36 -5.36 l0 -3.12 l3.8 0 l0 3.12 c0 0.88 0.72 1.56 1.56 1.56 c0.88 0 1.56 -0.68 1.56 -1.56 l0 -1.72 l-6.92 -7.16 l0 -3.16 c0 -2.96 2.4 -5.4 5.36 -5.4 s5.36 2.44 5.36 5.4 l0 2.48 l-3.8 0 l0 -2.48 c0 -0.88 -0.68 -1.56 -1.56 -1.56 c-0.84 0 -1.56 0.68 -1.56 1.56 l0 1.6 l6.92 7.2 l0 3.24 c0 2.96 -2.4 5.36 -5.36 5.36 z M74 17.64 l3.8 0 l0 22.84 l-3.8 0 l0 -0.84 c-0.28 0.08 -0.6 0.12 -0.92 0.12 c-2.64 0 -4.76 -2.16 -4.76 -4.76 l0 -17.32 l3.8 0 l0 17.32 c0 0.52 0.44 0.96 0.96 0.96 s0.92 -0.44 0.92 -0.96 l0 -17.36 z M90.16000000000001 17.36 c2.6 0 4.72 2.12 4.72 4.72 l0 17.8 l-3.76 0 l0 -17.8 c0 -0.52 -0.44 -0.92 -0.96 -0.92 s-0.92 0.4 -0.92 0.92 l0 17.8 l-3.8 0 l0 -17.8 c0 -0.52 -0.4 -0.92 -0.92 -0.92 s-0.96 0.4 -0.96 0.92 l0 18 l-3.76 0 l0 -23.48 l3.76 0 l0 0.88 c0.32 -0.08 0.64 -0.12 0.96 -0.12 c1.04 0 2.04 0.36 2.84 0.96 c0.76 -0.6 1.76 -0.96 2.8 -0.96 z M107.24000000000001 17.36 c2.6 0 4.72 2.12 4.72 4.72 l0 17.8 l-3.76 0 l0 -17.8 c0 -0.52 -0.44 -0.92 -0.96 -0.92 s-0.92 0.4 -0.92 0.92 l0 17.8 l-3.8 0 l0 -17.8 c0 -0.52 -0.4 -0.92 -0.92 -0.92 s-0.96 0.4 -0.96 0.92 l0 18 l-3.76 0 l0 -23.48 l3.76 0 l0 0.88 c0.32 -0.08 0.64 -0.12 0.96 -0.12 c1.04 0 2.04 0.36 2.84 0.96 c0.76 -0.6 1.76 -0.96 2.8 -0.96 z M123.88000000000001 32.76 l0 7.2 l-3.68 0 l0 -0.12 c-0.36 0.08 -0.72 0.12 -1.12 0.12 c-2.8 0 -5.04 -2.24 -5.04 -5.04 l0 -4.28 c0 -1.12 0.44 -2.16 1.24 -2.96 c0.76 -0.76 1.8 -1.2 2.92 -1.2 l1.92 0 l0 -4.32 c0 -0.6 -0.52 -1.12 -1.12 -1.12 l-0.2 0 c-0.64 0 -1.12 0.52 -1.12 1.12 l0 3.04 l-3.72 0 l0 -3.04 c0 -2.68 2.16 -4.84 4.84 -4.84 l0.2 0 c2.68 0 4.84 2.16 4.84 4.84 z M119.08000000000001 36.24 c0.6 0 1.12 -0.48 1.12 -1.08 l-0.04 -4.92 l-1.96 -0.04 c-0.16 0 -0.24 0.08 -0.32 0.12 c-0.04 0.08 -0.12 0.16 -0.12 0.32 l0 4.28 c0 0.72 0.6 1.32 1.32 1.32 z M131.08 18.28 c2.72 0 4.92 2.16 4.92 4.88 l0 1.92 l-3.8 0 l0 -1.92 c0 -0.64 -0.48 -1.12 -1.12 -1.12 l-0.84 0 c-0.6 0 -1.12 0.48 -1.12 1.12 l-0.08 16.88 l-3.76 0 l0.08 -16.88 l0 -5.76 l3.76 0 l0 1 c0.36 -0.08 0.76 -0.12 1.12 -0.12 l0.84 0 z M141.60000000000005 39.88 c0.04 -6.28 0.04 -16.32 0 -22.52 l-3.8 0.04 c0.04 6.16 0.04 16.16 0 22.44 z M137.80000000000004 12.600000000000001 l3.8 0 l0 3.72 l-3.8 0 l0 -3.72 z M152.32000000000005 36.28 l0 3.72 l-8.68 0 l4.24 -18.96 l-3.4 0 l0 -3.76 l7.88 0 l-4.24 19 l4.2 0 z M159.56000000000003 39.92 c-2.88 0 -5.2 -2.36 -5.2 -5.24 l0 -12.48 c0 -2.64 2.16 -4.8 4.8 -4.8 l0.84 0 c2.64 0 4.8 2.16 4.8 4.8 l0 5.24 l-6.72 0.12 l0 7.12 c0 0.84 0.64 1.52 1.48 1.52 s1.52 -0.68 1.52 -1.52 l0 -2.48 l3.72 0 l0 2.48 c0 2.88 -2.36 5.24 -5.24 5.24 z M160.00000000000003 21.08 l-0.84 0 c-0.6 0 -1.08 0.52 -1.08 1.12 l0 1.68 l3 -0.08 l0 -1.6 c0 -0.6 -0.48 -1.12 -1.08 -1.12 z M172.60000000000005 18.28 c2.72 0 4.92 2.16 4.92 4.88 l0 1.92 l-3.8 0 l0 -1.92 c0 -0.64 -0.48 -1.12 -1.12 -1.12 l-0.84 0 c-0.6 0 -1.12 0.48 -1.12 1.12 l-0.08 16.88 l-3.76 0 l0.08 -16.88 l0 -5.76 l3.76 0 l0 1 c0.36 -0.08 0.76 -0.12 1.12 -0.12 l0.84 0 z"/></g>
			</g>
		</svg>
	